<svg width="18" height="16" viewBox="0 0 18 16" fill="none" xmlns="http://www.w3.org/2000/svg">
<path d="M11.2071 2.04289L10.5 2.75L10.5 2.75L11.2071 2.04289ZM9.79289 2.04289L9.08579 1.33579V1.33579L9.79289 2.04289ZM16.4571 7.29289L15.75 8V8L16.4571 7.29289ZM16.4571 8.70711L15.75 8L15.75 8L16.4571 8.70711ZM15.0429 8.70711L15.75 8L15.75 8L15.0429 8.70711ZM9.79289 3.45711L10.5 2.75V2.75L9.79289 3.45711ZM16.4571 8.70711L15.75 8L16.4571 8.70711ZM16.4571 7.29289L15.75 8L15.75 8L16.4571 7.29289ZM11.2071 13.9571L10.5 13.25L10.5 13.25L11.2071 13.9571ZM9.79289 13.9571L10.5 13.25L9.79289 13.9571ZM9.79289 12.5429L10.5 13.25V13.25L9.79289 12.5429ZM15.0429 7.29289L15.75 8V8L15.0429 7.29289ZM2.25 7L2.25 6H2.25V7ZM1.25 8H0.25H1.25ZM15.75 7V8V7ZM15.75 9V10V9ZM2.25 9L2.25 8H2.25V9ZM11.9142 1.33579C11.1332 0.554737 9.86684 0.554738 9.08579 1.33579L10.5 2.75L10.5 2.75L11.9142 1.33579ZM17.1642 6.58579L11.9142 1.33579L10.5 2.75L15.75 8L17.1642 6.58579ZM17.1642 9.41421C17.9453 8.63317 17.9453 7.36684 17.1642 6.58579L15.75 8L15.75 8L17.1642 9.41421ZM14.3358 9.41421C15.1168 10.1953 16.3832 10.1953 17.1642 9.41421L15.75 8H15.75L14.3358 9.41421ZM9.08579 4.16421L14.3358 9.41421L15.75 8L10.5 2.75L9.08579 4.16421ZM9.08579 1.33579C8.30474 2.11683 8.30474 3.38317 9.08579 4.16421L10.5 2.75V2.75L9.08579 1.33579ZM17.1642 9.41421C17.9453 8.63317 17.9453 7.36684 17.1642 6.58579L15.75 8V8L17.1642 9.41421ZM11.9142 14.6642L17.1642 9.41421L15.75 8L10.5 13.25L11.9142 14.6642ZM9.08578 14.6642C9.86683 15.4453 11.1332 15.4453 11.9142 14.6642L10.5 13.25L10.5 13.25L9.08578 14.6642ZM9.08579 11.8358C8.30474 12.6168 8.30474 13.8832 9.08579 14.6642L10.5 13.25V13.25L9.08579 11.8358ZM14.3358 6.58579L9.08579 11.8358L10.5 13.25L15.75 8L14.3358 6.58579ZM17.1642 6.58579C16.3832 5.80474 15.1168 5.80474 14.3358 6.58579L15.75 8L15.75 8L17.1642 6.58579ZM2.25 6C1.14543 6 0.25 6.89543 0.25 8H2.25V6ZM15.75 6L2.25 6L2.25 8L15.75 8V6ZM17.75 8C17.75 6.89543 16.8546 6 15.75 6V8H17.75ZM15.75 10C16.8546 10 17.75 9.10457 17.75 8H15.75V10ZM2.25 10L15.75 10V8L2.25 8L2.25 10ZM0.25 8C0.25 9.10457 1.14543 10 2.25 10V8H0.25Z" fill="#F9FAFB"/>
</svg>
