<svg width="60" height="60" viewBox="0 0 60 60" fill="none" xmlns="http://www.w3.org/2000/svg">
<g clip-path="url(#clip0_2_1178)">
<circle opacity="0.2" cx="30" cy="30" r="30" fill="#FD6003"/>
<path fill-rule="evenodd" clip-rule="evenodd" d="M19 37C18.4696 37 17.9609 36.7893 17.5858 36.4142C17.2107 36.0391 17 35.5304 17 35V25C17 24.4696 17.2107 23.9609 17.5858 23.5858C17.9609 23.2107 18.4696 23 19 23H32C32.5304 23 33.0391 23.2107 33.4142 23.5858C33.7893 23.9609 34 24.4696 34 25V35C34 35.5304 33.7893 36.0391 33.4142 36.4142C33.0391 36.7893 32.5304 37 32 37H19ZM36 33L40.445 35.964C40.5957 36.0645 40.7708 36.1222 40.9517 36.131C41.1326 36.1397 41.3125 36.0992 41.4722 36.0136C41.6319 35.9281 41.7653 35.8008 41.8583 35.6454C41.9512 35.4899 42.0002 35.3121 42 35.131V24.869C42 24.688 41.9509 24.5103 41.8579 24.355C41.7648 24.1997 41.6314 24.0725 41.4718 23.9871C41.3121 23.9017 41.1323 23.8612 40.9515 23.87C40.7707 23.8788 40.5956 23.9365 40.445 24.037L36 27V33Z" fill="#FD6003"/>
</g>
<defs>
<clipPath id="clip0_2_1178">
<rect width="60" height="60" fill="white"/>
</clipPath>
</defs>
</svg>
